<svg xmlns="http://www.w3.org/2000/svg" viewBox="0 0 640 480">
  <g fill-rule="evenodd">
    <path fill="#fff" d="M0 0h640v480H0z"/>
    <path fill="#bd3d44" d="M0 0h640v36.9H0zm0 73.8h640v36.9H0zm0 73.8h640v36.9H0zm0 73.7h640v37H0zm0 73.8h640v36.9H0zm0 73.8h640v36.9H0zm0 73.8h640v37H0z"/>
    <path fill="#192f5d" d="M0 0h364.8v258.5H0z"/>
    <path fill="#fff" d="M30.4 11l3.4 10.3h10.6l-8.6 6.3 3.3 10.3-8.7-6.4-8.6 6.3L25 27.6l-8.7-6.3h10.9zm60.8 0 3.3 10.3h10.8l-8.7 6.3 3.3 10.3-8.7-6.4-8.7 6.3 3.3-10.2-8.6-6.3h10.7zm60.8 0 3.3 10.3H166l-8.7 6.3 3.3 10.3-8.7-6.4-8.7 6.3 3.3-10.2-8.7-6.3h10.9zm60.8 0 3.3 10.3h10.8l-8.7 6.3 3.3 10.3-8.7-6.4-8.7 6.3 3.4-10.2-8.8-6.3h10.9zm60.8 0 3.3 10.3h10.8l-8.7 6.3 3.3 10.3-8.7-6.4-8.7 6.3 3.4-10.2-8.8-6.3h10.9z"/>
  </g>
</svg>